<svg id="visual" viewBox="0 0 960 540" width="960" height="540" xmlns="http://www.w3.org/2000/svg" xmlns:xlink="http://www.w3.org/1999/xlink" version="1.1"><g stroke-width="1" stroke-linejoin="bevel"><path d="M504.3 291L515.3 435L569.3 326Z" fill="#da912b" stroke="#da912b"></path><path d="M504.3 291L405.7 338L515.3 435Z" fill="#8e5200" stroke="#8e5200"></path><path d="M515.3 435L632 412L569.3 326Z" fill="#da912b" stroke="#da912b"></path><path d="M405.7 338L428.7 477L515.3 435Z" fill="#995b05" stroke="#995b05"></path><path d="M515.3 435L562.3 540L632 412Z" fill="#da912b" stroke="#da912b"></path><path d="M504.3 291L407.7 250L405.7 338Z" fill="#a3630c" stroke="#a3630c"></path><path d="M632 412L657 387L569.3 326Z" fill="#fbae3c" stroke="#fbae3c"></path><path d="M657 387L649 282L569.3 326Z" fill="#c47e1f" stroke="#c47e1f"></path><path d="M569.3 326L508.3 196L504.3 291Z" fill="#c47e1f" stroke="#c47e1f"></path><path d="M504.3 291L508.3 196L407.7 250Z" fill="#a3630c" stroke="#a3630c"></path><path d="M649 282L508.3 196L569.3 326Z" fill="#b97519" stroke="#b97519"></path><path d="M428.7 477L562.3 540L515.3 435Z" fill="#da912b" stroke="#da912b"></path><path d="M632 412L748.7 445L657 387Z" fill="#c47e1f" stroke="#c47e1f"></path><path d="M344 540L429.7 540L428.7 477Z" fill="#c47e1f" stroke="#c47e1f"></path><path d="M428.7 477L429.7 540L562.3 540Z" fill="#ae6c13" stroke="#ae6c13"></path><path d="M748.7 445L711.7 332L657 387Z" fill="#ae6c13" stroke="#ae6c13"></path><path d="M657 387L711.7 332L649 282Z" fill="#fbae3c" stroke="#fbae3c"></path><path d="M407.7 250L314 283L405.7 338Z" fill="#ae6c13" stroke="#ae6c13"></path><path d="M405.7 338L322 469L428.7 477Z" fill="#c47e1f" stroke="#c47e1f"></path><path d="M293 200L314 283L407.7 250Z" fill="#fbae3c" stroke="#fbae3c"></path><path d="M281 354L322 469L405.7 338Z" fill="#a3630c" stroke="#a3630c"></path><path d="M508.3 196L397.7 179L407.7 250Z" fill="#b97519" stroke="#b97519"></path><path d="M562.3 540L638 540L632 412Z" fill="#ae6c13" stroke="#ae6c13"></path><path d="M314 283L281 354L405.7 338Z" fill="#c47e1f" stroke="#c47e1f"></path><path d="M755.7 301L678 213L649 282Z" fill="#995b05" stroke="#995b05"></path><path d="M649 282L678 213L508.3 196Z" fill="#da912b" stroke="#da912b"></path><path d="M508.3 196L446.7 122L397.7 179Z" fill="#ae6c13" stroke="#ae6c13"></path><path d="M322 469L344 540L428.7 477Z" fill="#b97519" stroke="#b97519"></path><path d="M231.3 540L344 540L322 469Z" fill="#b97519" stroke="#b97519"></path><path d="M520.3 57L446.7 122L508.3 196Z" fill="#da912b" stroke="#da912b"></path><path d="M638 540L748.7 445L632 412Z" fill="#a3630c" stroke="#a3630c"></path><path d="M711.7 332L755.7 301L649 282Z" fill="#995b05" stroke="#995b05"></path><path d="M830.3 337L755.7 301L711.7 332Z" fill="#fbae3c" stroke="#fbae3c"></path><path d="M314 283L248.3 356L281 354Z" fill="#f0a436" stroke="#f0a436"></path><path d="M281 354L212.3 427L322 469Z" fill="#995b05" stroke="#995b05"></path><path d="M197.3 278L248.3 356L314 283Z" fill="#ae6c13" stroke="#ae6c13"></path><path d="M397.7 179L293 200L407.7 250Z" fill="#ae6c13" stroke="#ae6c13"></path><path d="M354 66L293 200L397.7 179Z" fill="#c47e1f" stroke="#c47e1f"></path><path d="M638 540L725.7 540L748.7 445Z" fill="#da912b" stroke="#da912b"></path><path d="M91.7 396L212.3 427L248.3 356Z" fill="#c47e1f" stroke="#c47e1f"></path><path d="M248.3 356L212.3 427L281 354Z" fill="#f0a436" stroke="#f0a436"></path><path d="M620 68L520.3 57L508.3 196Z" fill="#fbae3c" stroke="#fbae3c"></path><path d="M446.7 122L354 66L397.7 179Z" fill="#ae6c13" stroke="#ae6c13"></path><path d="M755.7 301L779.7 219L678 213Z" fill="#8e5200" stroke="#8e5200"></path><path d="M678 213L620 68L508.3 196Z" fill="#a3630c" stroke="#a3630c"></path><path d="M871.3 293L779.7 219L755.7 301Z" fill="#e59a30" stroke="#e59a30"></path><path d="M765.7 71L620 68L678 213Z" fill="#ae6c13" stroke="#ae6c13"></path><path d="M208.3 212L197.3 278L314 283Z" fill="#995b05" stroke="#995b05"></path><path d="M861.3 471L830.3 337L748.7 445Z" fill="#b97519" stroke="#b97519"></path><path d="M748.7 445L830.3 337L711.7 332Z" fill="#da912b" stroke="#da912b"></path><path d="M212.3 427L231.3 540L322 469Z" fill="#b97519" stroke="#b97519"></path><path d="M425.7 0L354 66L446.7 122Z" fill="#ae6c13" stroke="#ae6c13"></path><path d="M293 200L208.3 212L314 283Z" fill="#ae6c13" stroke="#ae6c13"></path><path d="M175.3 108L208.3 212L293 200Z" fill="#da912b" stroke="#da912b"></path><path d="M620 68L550.3 0L520.3 57Z" fill="#fbae3c" stroke="#fbae3c"></path><path d="M520.3 57L425.7 0L446.7 122Z" fill="#b97519" stroke="#b97519"></path><path d="M623 0L550.3 0L620 68Z" fill="#995b05" stroke="#995b05"></path><path d="M837.3 540L861.3 471L748.7 445Z" fill="#c47e1f" stroke="#c47e1f"></path><path d="M960 335L871.3 293L830.3 337Z" fill="#c47e1f" stroke="#c47e1f"></path><path d="M830.3 337L871.3 293L755.7 301Z" fill="#e59a30" stroke="#e59a30"></path><path d="M744.7 0L623 0L620 68Z" fill="#995b05" stroke="#995b05"></path><path d="M550.3 0L425.7 0L520.3 57Z" fill="#cf8725" stroke="#cf8725"></path><path d="M725.7 540L837.3 540L748.7 445Z" fill="#a3630c" stroke="#a3630c"></path><path d="M765.7 71L678 213L779.7 219Z" fill="#ae6c13" stroke="#ae6c13"></path><path d="M856.3 165L765.7 71L779.7 219Z" fill="#e59a30" stroke="#e59a30"></path><path d="M871.3 293L856.3 165L779.7 219Z" fill="#e59a30" stroke="#e59a30"></path><path d="M425.7 0L318 0L354 66Z" fill="#e59a30" stroke="#e59a30"></path><path d="M354 66L175.3 108L293 200Z" fill="#f0a436" stroke="#f0a436"></path><path d="M83.7 424L134.7 540L212.3 427Z" fill="#e59a30" stroke="#e59a30"></path><path d="M212.3 427L134.7 540L231.3 540Z" fill="#c47e1f" stroke="#c47e1f"></path><path d="M91.7 396L248.3 356L197.3 278Z" fill="#8e5200" stroke="#8e5200"></path><path d="M93.7 213L113.7 239L208.3 212Z" fill="#f0a436" stroke="#f0a436"></path><path d="M208.3 212L113.7 239L197.3 278Z" fill="#cf8725" stroke="#cf8725"></path><path d="M113.7 239L91.7 396L197.3 278Z" fill="#ae6c13" stroke="#ae6c13"></path><path d="M217.3 0L175.3 108L354 66Z" fill="#cf8725" stroke="#cf8725"></path><path d="M960 182L852.3 110L856.3 165Z" fill="#b97519" stroke="#b97519"></path><path d="M856.3 165L852.3 110L765.7 71Z" fill="#cf8725" stroke="#cf8725"></path><path d="M765.7 71L744.7 0L620 68Z" fill="#8e5200" stroke="#8e5200"></path><path d="M0 347L83.7 424L91.7 396Z" fill="#a3630c" stroke="#a3630c"></path><path d="M91.7 396L83.7 424L212.3 427Z" fill="#995b05" stroke="#995b05"></path><path d="M844.3 0L744.7 0L765.7 71Z" fill="#c47e1f" stroke="#c47e1f"></path><path d="M175.3 108L93.7 213L208.3 212Z" fill="#8e5200" stroke="#8e5200"></path><path d="M0 293L0 347L91.7 396Z" fill="#cf8725" stroke="#cf8725"></path><path d="M861.3 471L960 335L830.3 337Z" fill="#f0a436" stroke="#f0a436"></path><path d="M871.3 293L960 182L856.3 165Z" fill="#995b05" stroke="#995b05"></path><path d="M960 461L960 335L861.3 471Z" fill="#c47e1f" stroke="#c47e1f"></path><path d="M960 335L960 304L871.3 293Z" fill="#a3630c" stroke="#a3630c"></path><path d="M960 540L960 461L861.3 471Z" fill="#995b05" stroke="#995b05"></path><path d="M318 0L217.3 0L354 66Z" fill="#fbae3c" stroke="#fbae3c"></path><path d="M175.3 108L113.7 89L93.7 213Z" fill="#cf8725" stroke="#cf8725"></path><path d="M217.3 0L113.7 89L175.3 108Z" fill="#cf8725" stroke="#cf8725"></path><path d="M837.3 540L960 540L861.3 471Z" fill="#da912b" stroke="#da912b"></path><path d="M960 304L960 182L871.3 293Z" fill="#e59a30" stroke="#e59a30"></path><path d="M852.3 110L844.3 0L765.7 71Z" fill="#e59a30" stroke="#e59a30"></path><path d="M960 54L844.3 0L852.3 110Z" fill="#fbae3c" stroke="#fbae3c"></path><path d="M0 293L113.7 239L93.7 213Z" fill="#cf8725" stroke="#cf8725"></path><path d="M0 293L91.7 396L113.7 239Z" fill="#cf8725" stroke="#cf8725"></path><path d="M83.7 424L0 540L134.7 540Z" fill="#8e5200" stroke="#8e5200"></path><path d="M0 167L0 293L93.7 213Z" fill="#cf8725" stroke="#cf8725"></path><path d="M0 347L0 451L83.7 424Z" fill="#e59a30" stroke="#e59a30"></path><path d="M0 451L0 540L83.7 424Z" fill="#e59a30" stroke="#e59a30"></path><path d="M0 110L0 167L113.7 89Z" fill="#e59a30" stroke="#e59a30"></path><path d="M113.7 89L0 167L93.7 213Z" fill="#995b05" stroke="#995b05"></path><path d="M960 182L960 54L852.3 110Z" fill="#8e5200" stroke="#8e5200"></path><path d="M217.3 0L72.7 0L113.7 89Z" fill="#cf8725" stroke="#cf8725"></path><path d="M72.7 0L0 110L113.7 89Z" fill="#f0a436" stroke="#f0a436"></path><path d="M960 54L960 0L844.3 0Z" fill="#ae6c13" stroke="#ae6c13"></path><path d="M72.7 0L0 0L0 110Z" fill="#e59a30" stroke="#e59a30"></path></g></svg>