<svg id="visual" viewBox="0 0 900 600" width="900" height="600" xmlns="http://www.w3.org/2000/svg" xmlns:xlink="http://www.w3.org/1999/xlink" version="1.1"><rect x="0" y="0" width="900" height="600" fill="#1F1F1F"></rect><defs><linearGradient id="grad1_0" x1="33.3%" y1="100%" x2="100%" y2="0%"><stop offset="20%" stop-color="#1f1f1f" stop-opacity="1"></stop><stop offset="80%" stop-color="#1f1f1f" stop-opacity="1"></stop></linearGradient></defs><defs><linearGradient id="grad2_0" x1="0%" y1="100%" x2="66.7%" y2="0%"><stop offset="20%" stop-color="#1f1f1f" stop-opacity="1"></stop><stop offset="80%" stop-color="#1f1f1f" stop-opacity="1"></stop></linearGradient></defs><g transform="translate(900, 600)"><path d="M-378.6 0C-375.3 -51.5 -372 -103 -349.8 -144.9C-327.5 -186.7 -286.2 -218.9 -248.2 -248.2C-210.2 -277.5 -175.5 -304 -134.7 -325.2C-93.9 -346.5 -46.9 -362.5 0 -378.6L0 0Z" fill="#FBAE3C"></path></g><g transform="translate(0, 0)"><path d="M378.6 0C366.6 45.8 354.5 91.6 339.1 140.4C323.6 189.3 304.6 241.2 267.7 267.7C230.8 294.2 175.8 295.3 128.2 309.5C80.6 323.7 40.3 351.2 0 378.6L0 0Z" fill="#FBAE3C"></path></g></svg>