<svg id="visual" viewBox="0 0 1400 1024" width="1400" height="1024" xmlns="http://www.w3.org/2000/svg" xmlns:xlink="http://www.w3.org/1999/xlink" version="1.1"><path d="M386 0L373.8 24.3C361.7 48.7 337.3 97.3 325.7 146.2C314 195 315 244 330.3 292.8C345.7 341.7 375.3 390.3 358.3 439C341.3 487.7 277.7 536.3 274.8 585C272 633.7 330 682.3 367.8 731.2C405.7 780 423.3 829 417.3 877.8C411.3 926.7 381.7 975.3 366.8 999.7L352 1024L0 1024L0 999.7C0 975.3 0 926.7 0 877.8C0 829 0 780 0 731.2C0 682.3 0 633.7 0 585C0 536.3 0 487.7 0 439C0 390.3 0 341.7 0 292.8C0 244 0 195 0 146.2C0 97.3 0 48.7 0 24.3L0 0Z" fill="#6198ff"></path><path d="M277 0L261 24.3C245 48.7 213 97.3 195.5 146.2C178 195 175 244 189.7 292.8C204.3 341.7 236.7 390.3 251.3 439C266 487.7 263 536.3 234.8 585C206.7 633.7 153.3 682.3 143.8 731.2C134.3 780 168.7 829 170.7 877.8C172.7 926.7 142.3 975.3 127.2 999.7L112 1024L0 1024L0 999.7C0 975.3 0 926.7 0 877.8C0 829 0 780 0 731.2C0 682.3 0 633.7 0 585C0 536.3 0 487.7 0 439C0 390.3 0 341.7 0 292.8C0 244 0 195 0 146.2C0 97.3 0 48.7 0 24.3L0 0Z" fill="#004cbb"></path></svg>